<?xml version="1.0" encoding="utf-8"?>
<!-- Generator: Adobe Illustrator 24.0.1, SVG Export Plug-In . SVG Version: 6.00 Build 0)  -->
<svg version="1.1" id="レイヤー_1" xmlns="http://www.w3.org/2000/svg" xmlns:xlink="http://www.w3.org/1999/xlink" x="0px"
	 y="0px" width="240px" height="60px" viewBox="0 0 240 60" style="enable-background:new 0 0 240 60;" xml:space="preserve">
<style type="text/css">
	.st0{fill:#333333;}
	.st1{fill:#00B7CE;}
</style>
<g>
	<path class="st0" d="M64.3334961,38.28125l-3.6303711,7.1650391H47.6992188l2.6181641-27.8676758h4.5327148L52.9140625,38.28125
		H64.3334961z"/>
	<path class="st0" d="M87.6762695,28.9091797c0,11.4550781-4.0043945,16.9951172-12.2558594,16.9951172
		c-6.3588867,0-9.5712891-3.7490234-9.5712891-11.8300781c0-11.4550781,4.0043945-16.9536133,12.2558594-16.9536133
		C84.4638672,17.1206055,87.6762695,20.8276367,87.6762695,28.9091797z M83.0996094,29.7836914
		c0-4.4985352-1.6723633-5.4150391-5.6767578-5.4150391c-5.9189453,0-6.9970703,1.7080078-6.9970703,8.8725586
		c0,4.4990234,1.6943359,5.4150391,5.6547852,5.4150391C81.9995117,38.65625,83.0996094,36.9072266,83.0996094,29.7836914z"/>
	<path class="st0" d="M99.2460938,28.0341797h9.4174805l-1.628418,17.4121094H96.9360352
		c-4.5986328,0-7.6572266-5.2480469-7.6572266-12.2880859c0-9.1645508,4.6206055-15.5795898,10.253418-15.5795898h10.5395508
		l-3.6303711,7.2480469h-7.5913086c-2.7060547,0-5.0166016,3.2910156-5.0166016,7.7475586
		c0,3.4580078,1.4960938,5.7070312,3.7626953,5.7070312h5.5888672l0.3740234-4.0400391h-7.6352539L99.2460938,28.0341797z"/>
	<path class="st0" d="M132.1591797,28.9091797c0,11.4550781-4.0039062,16.9951172-12.2553711,16.9951172
		c-6.3588867,0-9.5712891-3.7490234-9.5712891-11.8300781c0-11.4550781,4.0043945-16.9536133,12.2553711-16.9536133
		C128.9472656,17.1206055,132.1591797,20.8276367,132.1591797,28.9091797z M127.5830078,29.7836914
		c0-4.4985352-1.671875-5.4150391-5.6767578-5.4150391c-5.9189453,0-6.9970703,1.7080078-6.9970703,8.8725586
		c0,4.4990234,1.6943359,5.4150391,5.6547852,5.4150391C126.4824219,38.65625,127.5830078,36.9072266,127.5830078,29.7836914z"/>
	<path class="st0" d="M144.8076172,27.9511719c0.7705078,3.7900391,1.2763672,6.4560547,1.6064453,8.3310547
		c0.6601562-1.9580078,1.4306641-3.9990234,3.1240234-8.2895508l3.1025391-7.9145508
		c0.6826172-1.7495117,1.5625-2.9575195,2.7724609-2.9575195c1.1445312,0,2.0244141,1.2495117,2.1787109,3.8320312
		l1.4521484,24.4936523h-4.5322266l-0.5068359-9.7060547c-0.1533203-3.1660156-0.2421875-5.4150391-0.2636719-7.6640625
		c-0.6601562,1.9570312-1.4306641,4.0820312-2.7949219,7.7060547l-2.6181641,6.9980469
		c-1.0341797,2.75-1.8037109,3.1240234-2.9042969,3.1240234c-1.0996094,0-1.8037109-0.3740234-2.3320312-3.1240234
		l-1.3203125-7.0400391c-0.7265625-3.8320312-1.0566406-5.7895508-1.3417969-7.6640625
		c-0.4404297,2.0410156-1.0341797,4.7070312-1.7167969,7.6640625l-2.2880859,9.7060547h-4.4667969l6.0732422-24.4936523
		c0.6601562-2.5825195,1.8037109-3.8320312,2.9482422-3.8320312c1.1660156,0,1.8476562,1.1245117,2.2216797,2.9575195
		L144.8076172,27.9511719z"/>
	<path class="st0" d="M166.9384766,45.4462891l3.4326172-7.1650391h3.6738281c0.9023438,0,1.9150391,0,2.6191406,0.0839844
		c-0.3085938-1-0.7705078-2.7080078-1.1220703-4.0410156l-1.9589844-7.3730469l-8.625,18.4951172h-5.390625l11.7939453-25.2016602
		c0.7695312-1.6245117,1.8037109-3.1240234,3.234375-3.1240234c1.3642578,0,2.1337891,1.3745117,2.6181641,3.1240234
		l6.8427734,25.2016602H166.9384766z"/>
	<path class="st0" d="M206.5625,45.4462891h-6.0957031l-2.5957031-7.3730469h-6.9970703l-0.6826172,7.3730469h-4.5546875
		l1.3203125-14.2460938h12.8056641c1.5185547,0,2.8388672-1.3745117,2.8388672-3.6240234
		c0-1.8330078-0.8359375-2.7495117-2.2441406-2.7495117h-12.8056641l3.6523438-7.2480469h9.4609375
		c3.0810547,0,6.7333984,1.7910156,6.7333984,8.4560547c0,5.0405273-1.9140625,9.2895508-4.7529297,10.3305664
		c0.4179688,0.7080078,0.8798828,1.7080078,1.6943359,3.6660156L206.5625,45.4462891z"/>
	<path class="st0" d="M226.7578125,45.4462891h-6.8867188l-3.7626953-7.3310547
		c-1.2988281-2.5-1.8925781-3.7080078-2.2890625-4.6660156l-0.3076172,3.9990234l-0.7480469,7.9980469h-4.5771484
		l2.6191406-27.8676758h4.5546875l-0.5947266,6.456543c-0.1757812,1.7080078-0.3955078,3.4160156-0.5498047,4.8740234
		c0.6601562-1,1.6064453-2.4160156,3.1240234-4.5405273l4.8847656-6.7900391h6.6015625l-6.359375,7.9980469
		c-2.2441406,2.7910156-3.2558594,4.0405273-4.2900391,5.1235352c0.7255859,1.0830078,1.7158203,2.6240234,3.34375,5.5400391
		L226.7578125,45.4462891z"/>
</g>
<g>
	<path class="st1" d="M21.7001953,30.75l-7.0185547,6.9960938L7.7080078,30.75l6.9736328-6.9736328L21.7001953,30.75z
		 M30.9101562,21.5625l-6.9736328,6.9736328L16.9404297,21.5625l6.9960938-7.0405273L30.9101562,21.5625z M30.9101562,40.0039062
		L23.9365234,47l-6.9960938-6.9960938l6.9960938-6.9736328L30.9101562,40.0039062z M40.1640625,30.75l-6.9736328,6.9960938
		L26.1503906,30.75l7.0400391-6.9736328L40.1640625,30.75z"/>
</g>
</svg>
